<svg width="12" height="13" viewBox="0 0 12 13" fill="none" xmlns="http://www.w3.org/2000/svg">
<path fill-rule="evenodd" clip-rule="evenodd" d="M6.00078 0.799805C2.85276 0.799805 0.300781 3.35178 0.300781 6.4998C0.300781 9.64783 2.85276 12.1998 6.00078 12.1998C9.1488 12.1998 11.7008 9.64783 11.7008 6.4998C11.7008 3.35178 9.1488 0.799805 6.00078 0.799805ZM1.20078 6.4998C1.20078 3.84884 3.34981 1.6998 6.00078 1.6998C8.65175 1.6998 10.8008 3.84884 10.8008 6.4998C10.8008 9.15077 8.65175 11.2998 6.00078 11.2998C3.34981 11.2998 1.20078 9.15077 1.20078 6.4998ZM6.45078 4.16647C6.45078 3.91794 6.24931 3.71647 6.00078 3.71647C5.75225 3.71647 5.55078 3.91794 5.55078 4.16647V6.4998C5.55078 6.65026 5.62598 6.79077 5.75117 6.87423L7.50117 8.04089C7.70795 8.17875 7.98734 8.12287 8.1252 7.91609C8.26306 7.7093 8.20718 7.42991 8.0004 7.29205L6.45078 6.25897V4.16647Z" fill="#717171"/>
</svg>
